<mxfile host="app.diagrams.net" agent="Mozilla/5.0 (Windows NT 10.0; Win64; x64) AppleWebKit/537.36 (KHTML, like Gecko) Chrome/129.0.0.0 Safari/537.36 Edg/129.0.0.0" version="24.7.16">
  <diagram name="第 1 页" id="zR3HjCmefdOrYB4w0hMe">
    <mxGraphModel dx="1774" dy="919" grid="1" gridSize="10" guides="1" tooltips="1" connect="1" arrows="1" fold="1" page="1" pageScale="1" pageWidth="827" pageHeight="1169" math="0" shadow="0">
      <root>
        <mxCell id="0" />
        <mxCell id="1" parent="0" />
        <mxCell id="-i2lD9mvpa3fZZV_fH7E-4" value="" style="rounded=0;whiteSpace=wrap;html=1;dashed=1;dashPattern=8 8;fillColor=none;" vertex="1" parent="1">
          <mxGeometry x="190" y="140" width="450" height="50" as="geometry" />
        </mxCell>
        <mxCell id="-i2lD9mvpa3fZZV_fH7E-1" value="气温" style="rounded=0;whiteSpace=wrap;html=1;fillColor=none;" vertex="1" parent="1">
          <mxGeometry x="210" y="150" width="120" height="30" as="geometry" />
        </mxCell>
        <mxCell id="-i2lD9mvpa3fZZV_fH7E-2" value="相对湿度" style="rounded=0;whiteSpace=wrap;html=1;fillColor=none;" vertex="1" parent="1">
          <mxGeometry x="354" y="150" width="120" height="30" as="geometry" />
        </mxCell>
        <mxCell id="-i2lD9mvpa3fZZV_fH7E-3" value="风速" style="rounded=0;whiteSpace=wrap;html=1;fillColor=none;" vertex="1" parent="1">
          <mxGeometry x="500" y="150" width="120" height="30" as="geometry" />
        </mxCell>
        <mxCell id="-i2lD9mvpa3fZZV_fH7E-5" value="数据处理及日值统计" style="rounded=0;whiteSpace=wrap;html=1;fillColor=none;" vertex="1" parent="1">
          <mxGeometry x="190" y="220" width="450" height="50" as="geometry" />
        </mxCell>
        <mxCell id="-i2lD9mvpa3fZZV_fH7E-6" value="" style="rounded=0;whiteSpace=wrap;html=1;dashed=1;dashPattern=8 8;fillColor=none;" vertex="1" parent="1">
          <mxGeometry x="190" y="310" width="450" height="50" as="geometry" />
        </mxCell>
        <mxCell id="-i2lD9mvpa3fZZV_fH7E-7" value="日均气温" style="rounded=0;whiteSpace=wrap;html=1;fillColor=none;" vertex="1" parent="1">
          <mxGeometry x="210" y="320" width="70" height="30" as="geometry" />
        </mxCell>
        <mxCell id="-i2lD9mvpa3fZZV_fH7E-10" value="日最高气温" style="rounded=0;whiteSpace=wrap;html=1;fillColor=none;" vertex="1" parent="1">
          <mxGeometry x="290" y="320" width="70" height="30" as="geometry" />
        </mxCell>
        <mxCell id="-i2lD9mvpa3fZZV_fH7E-11" value="日最低气温" style="rounded=0;whiteSpace=wrap;html=1;fillColor=none;" vertex="1" parent="1">
          <mxGeometry x="370" y="320" width="70" height="30" as="geometry" />
        </mxCell>
        <mxCell id="-i2lD9mvpa3fZZV_fH7E-12" value="日均相对湿度" style="rounded=0;whiteSpace=wrap;html=1;fillColor=none;" vertex="1" parent="1">
          <mxGeometry x="450" y="320" width="90" height="30" as="geometry" />
        </mxCell>
        <mxCell id="-i2lD9mvpa3fZZV_fH7E-13" value="日均风速" style="rounded=0;whiteSpace=wrap;html=1;fillColor=none;" vertex="1" parent="1">
          <mxGeometry x="550" y="320" width="70" height="30" as="geometry" />
        </mxCell>
      </root>
    </mxGraphModel>
  </diagram>
</mxfile>
